<svg width="14" height="14" viewBox="0 0 14 14" fill="none" xmlns="http://www.w3.org/2000/svg">
<path d="M13.6464 1.76355C13.8417 1.56829 13.8417 1.25171 13.6464 1.05645L12.9436 0.353553C12.7483 0.158291 12.4317 0.158291 12.2364 0.353553L7.35355 5.23645C7.15829 5.43171 6.84171 5.43171 6.64645 5.23645L1.76355 0.353553C1.56829 0.158291 1.25171 0.158291 1.05645 0.353553L0.353553 1.05645C0.158291 1.25171 0.158291 1.56829 0.353553 1.76355L5.23645 6.64645C5.43171 6.84171 5.43171 7.15829 5.23645 7.35355L0.353553 12.2364C0.158291 12.4317 0.158291 12.7483 0.353553 12.9436L1.05645 13.6464C1.25171 13.8417 1.56829 13.8417 1.76355 13.6464L6.64645 8.76355C6.84171 8.56829 7.15829 8.56829 7.35355 8.76355L12.2364 13.6464C12.4317 13.8417 12.7483 13.8417 12.9436 13.6464L13.6464 12.9436C13.8417 12.7483 13.8417 12.4317 13.6464 12.2364L8.76355 7.35355C8.56829 7.15829 8.56829 6.84171 8.76355 6.64645L13.6464 1.76355Z" fill="black"/>
</svg>
